# xmcd
#
# Track frame offsets:
#	150
#	18252
#	35950
#
# Disc length: 779 seconds
#
# Revision: 2
# Processed by: cddbd v1.5.2PL0 Copyright (c) Steve Scherf et al.
# Submitted via: audiograbber 1.83.01
#
DISCID=1f030903
DTITLE=4R - Loving The Alien [CDM)
DYEAR=1996
DGENRE=Pop
TTITLE0=Loving The Alien
TTITLE1=Loving The Alien (The Incredible Sammer Mix)
TTITLE2=Loving The Alien (The Unbelievable Möller Mix)
EXTD=TR.
EXTT0=
EXTT1=
EXTT2=
PLAYORDER=
